<mxfile host="app.diagrams.net" agent="Mozilla/5.0 (Windows NT 10.0; Win64; x64) AppleWebKit/537.36 (KHTML, like Gecko) Chrome/128.0.0.0 Safari/537.36" version="24.7.8" pages="2">
  <diagram id="CZPLT2HWKf0hZPgtsg7b" name="Use Case Diagram">
    <mxGraphModel dx="2790" dy="1287" grid="1" gridSize="10" guides="1" tooltips="1" connect="1" arrows="1" fold="1" page="1" pageScale="1" pageWidth="850" pageHeight="1100" math="0" shadow="0">
      <root>
        <mxCell id="0" />
        <mxCell id="1" parent="0" />
        <mxCell id="gdWsF5WpfaJxSPCwoSwz-1" value="Pelanggan" style="whiteSpace=wrap;strokeWidth=2;" vertex="1" parent="1">
          <mxGeometry x="235" y="20" width="87" height="34" as="geometry" />
        </mxCell>
        <mxCell id="gdWsF5WpfaJxSPCwoSwz-2" value="Inisiasi Pembayaran Utang" style="rounded=1;absoluteArcSize=1;arcSize=14;whiteSpace=wrap;strokeWidth=2;" vertex="1" parent="1">
          <mxGeometry x="359" y="123" width="202" height="34" as="geometry" />
        </mxCell>
        <mxCell id="gdWsF5WpfaJxSPCwoSwz-3" value="Verifikasi Detail Utang" style="rounded=1;absoluteArcSize=1;arcSize=14;whiteSpace=wrap;strokeWidth=2;" vertex="1" parent="1">
          <mxGeometry x="372" y="226" width="176" height="34" as="geometry" />
        </mxCell>
        <mxCell id="gdWsF5WpfaJxSPCwoSwz-4" value="Proses Pembayaran" style="rounded=1;absoluteArcSize=1;arcSize=14;whiteSpace=wrap;strokeWidth=2;" vertex="1" parent="1">
          <mxGeometry x="384" y="329" width="152" height="34" as="geometry" />
        </mxCell>
        <mxCell id="gdWsF5WpfaJxSPCwoSwz-5" value="Konfirmasi Pembayaran Berhasil" style="rounded=1;absoluteArcSize=1;arcSize=14;whiteSpace=wrap;strokeWidth=2;" vertex="1" parent="1">
          <mxGeometry x="20" y="432" width="244" height="34" as="geometry" />
        </mxCell>
        <mxCell id="gdWsF5WpfaJxSPCwoSwz-6" value="Update Catatan Akuntansi" style="rounded=1;absoluteArcSize=1;arcSize=14;whiteSpace=wrap;strokeWidth=2;" vertex="1" parent="1">
          <mxGeometry x="372" y="432" width="201" height="34" as="geometry" />
        </mxCell>
        <mxCell id="gdWsF5WpfaJxSPCwoSwz-7" value="Bank" style="whiteSpace=wrap;strokeWidth=2;" vertex="1" parent="1">
          <mxGeometry x="623" y="432" width="50" height="34" as="geometry" />
        </mxCell>
        <mxCell id="gdWsF5WpfaJxSPCwoSwz-8" value="Sistem Akuntansi" style="whiteSpace=wrap;strokeWidth=2;" vertex="1" parent="1">
          <mxGeometry x="405" y="535" width="136" height="34" as="geometry" />
        </mxCell>
        <mxCell id="gdWsF5WpfaJxSPCwoSwz-9" value="Inisiasi Pembayaran Utang" style="curved=1;startArrow=none;endArrow=block;exitX=1;exitY=0.86;entryX=0.5;entryY=0;rounded=0;" edge="1" parent="1" source="gdWsF5WpfaJxSPCwoSwz-1" target="gdWsF5WpfaJxSPCwoSwz-2">
          <mxGeometry relative="1" as="geometry">
            <Array as="points">
              <mxPoint x="460" y="89" />
            </Array>
          </mxGeometry>
        </mxCell>
        <mxCell id="gdWsF5WpfaJxSPCwoSwz-10" value="Verifikasi Detail Utang" style="curved=1;startArrow=none;endArrow=block;exitX=0.5;exitY=1;entryX=0.5;entryY=0;rounded=0;" edge="1" parent="1" source="gdWsF5WpfaJxSPCwoSwz-2" target="gdWsF5WpfaJxSPCwoSwz-3">
          <mxGeometry relative="1" as="geometry">
            <Array as="points" />
          </mxGeometry>
        </mxCell>
        <mxCell id="gdWsF5WpfaJxSPCwoSwz-11" value="Proses Pembayaran" style="curved=1;startArrow=none;endArrow=block;exitX=0.5;exitY=1;entryX=0.5;entryY=0;rounded=0;" edge="1" parent="1" source="gdWsF5WpfaJxSPCwoSwz-3" target="gdWsF5WpfaJxSPCwoSwz-4">
          <mxGeometry relative="1" as="geometry">
            <Array as="points" />
          </mxGeometry>
        </mxCell>
        <mxCell id="gdWsF5WpfaJxSPCwoSwz-12" value="Konfirmasi Pembayaran Berhasil" style="curved=1;startArrow=none;endArrow=block;exitX=0;exitY=0.96;entryX=0.59;entryY=0;rounded=0;" edge="1" parent="1" source="gdWsF5WpfaJxSPCwoSwz-4" target="gdWsF5WpfaJxSPCwoSwz-5">
          <mxGeometry relative="1" as="geometry">
            <Array as="points">
              <mxPoint x="210" y="398" />
            </Array>
          </mxGeometry>
        </mxCell>
        <mxCell id="gdWsF5WpfaJxSPCwoSwz-13" value="Update Catatan Akuntansi" style="curved=1;startArrow=none;endArrow=block;exitX=0.53;exitY=1;entryX=0.5;entryY=0;rounded=0;" edge="1" parent="1" source="gdWsF5WpfaJxSPCwoSwz-4" target="gdWsF5WpfaJxSPCwoSwz-6">
          <mxGeometry relative="1" as="geometry">
            <Array as="points">
              <mxPoint x="473" y="398" />
            </Array>
          </mxGeometry>
        </mxCell>
        <mxCell id="gdWsF5WpfaJxSPCwoSwz-14" value="Menghubungi" style="curved=1;startArrow=none;endArrow=block;exitX=0.91;exitY=1;entryX=0.51;entryY=0;rounded=0;" edge="1" parent="1" source="gdWsF5WpfaJxSPCwoSwz-4" target="gdWsF5WpfaJxSPCwoSwz-7">
          <mxGeometry relative="1" as="geometry">
            <Array as="points">
              <mxPoint x="649" y="398" />
            </Array>
          </mxGeometry>
        </mxCell>
        <mxCell id="gdWsF5WpfaJxSPCwoSwz-15" value="Diberitahu" style="curved=1;startArrow=none;endArrow=block;exitX=0.41;exitY=0;entryX=0;entryY=0.82;rounded=0;" edge="1" parent="1" source="gdWsF5WpfaJxSPCwoSwz-5" target="gdWsF5WpfaJxSPCwoSwz-1">
          <mxGeometry relative="1" as="geometry">
            <Array as="points">
              <mxPoint x="75" y="398" />
              <mxPoint x="75" y="89" />
            </Array>
          </mxGeometry>
        </mxCell>
        <mxCell id="gdWsF5WpfaJxSPCwoSwz-16" value="Diperbarui" style="curved=1;startArrow=none;endArrow=block;exitX=0.5;exitY=1;entryX=0.5;entryY=0;rounded=0;" edge="1" parent="1" source="gdWsF5WpfaJxSPCwoSwz-6" target="gdWsF5WpfaJxSPCwoSwz-8">
          <mxGeometry relative="1" as="geometry">
            <Array as="points" />
          </mxGeometry>
        </mxCell>
        <mxCell id="xxLfgqL-7jw-6b7ukiaj-1" value="Mulai" style="whiteSpace=wrap;strokeWidth=2;" vertex="1" parent="1">
          <mxGeometry x="1045" y="10" width="54" height="34" as="geometry" />
        </mxCell>
        <mxCell id="xxLfgqL-7jw-6b7ukiaj-2" value="Inisiasi Pembayaran Utang" style="whiteSpace=wrap;strokeWidth=2;" vertex="1" parent="1">
          <mxGeometry x="970" y="94" width="202" height="34" as="geometry" />
        </mxCell>
        <mxCell id="xxLfgqL-7jw-6b7ukiaj-3" value="Verifikasi Detail Utang" style="whiteSpace=wrap;strokeWidth=2;" vertex="1" parent="1">
          <mxGeometry x="983" y="178" width="176" height="34" as="geometry" />
        </mxCell>
        <mxCell id="xxLfgqL-7jw-6b7ukiaj-4" value="Validasi Data?" style="rhombus;strokeWidth=2;whiteSpace=wrap;" vertex="1" parent="1">
          <mxGeometry x="997" y="262" width="148" height="148" as="geometry" />
        </mxCell>
        <mxCell id="xxLfgqL-7jw-6b7ukiaj-5" value="Proses Pembayaran" style="whiteSpace=wrap;strokeWidth=2;" vertex="1" parent="1">
          <mxGeometry x="906" y="479" width="152" height="34" as="geometry" />
        </mxCell>
        <mxCell id="xxLfgqL-7jw-6b7ukiaj-6" value="Gagal" style="whiteSpace=wrap;strokeWidth=2;" vertex="1" parent="1">
          <mxGeometry x="1133" y="666" width="56" height="34" as="geometry" />
        </mxCell>
        <mxCell id="xxLfgqL-7jw-6b7ukiaj-7" value="Konfirmasi Pembayaran Berhasil" style="whiteSpace=wrap;strokeWidth=2;" vertex="1" parent="1">
          <mxGeometry x="860" y="582" width="244" height="34" as="geometry" />
        </mxCell>
        <mxCell id="xxLfgqL-7jw-6b7ukiaj-8" value="Update Catatan Akuntansi" style="whiteSpace=wrap;strokeWidth=2;" vertex="1" parent="1">
          <mxGeometry x="882" y="666" width="201" height="34" as="geometry" />
        </mxCell>
        <mxCell id="xxLfgqL-7jw-6b7ukiaj-9" value="Selesai" style="whiteSpace=wrap;strokeWidth=2;" vertex="1" parent="1">
          <mxGeometry x="1039" y="750" width="64" height="34" as="geometry" />
        </mxCell>
        <mxCell id="xxLfgqL-7jw-6b7ukiaj-10" value="" style="curved=1;startArrow=none;endArrow=block;exitX=0.49;exitY=1;entryX=0.5;entryY=0;rounded=0;" edge="1" parent="1" source="xxLfgqL-7jw-6b7ukiaj-1" target="xxLfgqL-7jw-6b7ukiaj-2">
          <mxGeometry relative="1" as="geometry">
            <Array as="points" />
          </mxGeometry>
        </mxCell>
        <mxCell id="xxLfgqL-7jw-6b7ukiaj-11" value="" style="curved=1;startArrow=none;endArrow=block;exitX=0.5;exitY=1;entryX=0.5;entryY=0;rounded=0;" edge="1" parent="1" source="xxLfgqL-7jw-6b7ukiaj-2" target="xxLfgqL-7jw-6b7ukiaj-3">
          <mxGeometry relative="1" as="geometry">
            <Array as="points" />
          </mxGeometry>
        </mxCell>
        <mxCell id="xxLfgqL-7jw-6b7ukiaj-12" value="" style="curved=1;startArrow=none;endArrow=block;exitX=0.5;exitY=1;entryX=0.5;entryY=0;rounded=0;" edge="1" parent="1" source="xxLfgqL-7jw-6b7ukiaj-3" target="xxLfgqL-7jw-6b7ukiaj-4">
          <mxGeometry relative="1" as="geometry">
            <Array as="points" />
          </mxGeometry>
        </mxCell>
        <mxCell id="xxLfgqL-7jw-6b7ukiaj-13" value="Ya" style="curved=1;startArrow=none;endArrow=block;exitX=0.09;exitY=1;entryX=0.5;entryY=0;rounded=0;" edge="1" parent="1" source="xxLfgqL-7jw-6b7ukiaj-4" target="xxLfgqL-7jw-6b7ukiaj-5">
          <mxGeometry relative="1" as="geometry">
            <Array as="points">
              <mxPoint x="982" y="444" />
            </Array>
          </mxGeometry>
        </mxCell>
        <mxCell id="xxLfgqL-7jw-6b7ukiaj-14" value="Tidak" style="curved=1;startArrow=none;endArrow=block;exitX=0.91;exitY=1;entryX=0.49;entryY=0;rounded=0;" edge="1" parent="1" source="xxLfgqL-7jw-6b7ukiaj-4" target="xxLfgqL-7jw-6b7ukiaj-6">
          <mxGeometry relative="1" as="geometry">
            <Array as="points">
              <mxPoint x="1161" y="444" />
            </Array>
          </mxGeometry>
        </mxCell>
        <mxCell id="xxLfgqL-7jw-6b7ukiaj-15" value="" style="curved=1;startArrow=none;endArrow=block;exitX=0.5;exitY=1;entryX=0.5;entryY=0;rounded=0;" edge="1" parent="1" source="xxLfgqL-7jw-6b7ukiaj-5" target="xxLfgqL-7jw-6b7ukiaj-7">
          <mxGeometry relative="1" as="geometry">
            <Array as="points" />
          </mxGeometry>
        </mxCell>
        <mxCell id="xxLfgqL-7jw-6b7ukiaj-16" value="" style="curved=1;startArrow=none;endArrow=block;exitX=0.5;exitY=1;entryX=0.5;entryY=0;rounded=0;" edge="1" parent="1" source="xxLfgqL-7jw-6b7ukiaj-7" target="xxLfgqL-7jw-6b7ukiaj-8">
          <mxGeometry relative="1" as="geometry">
            <Array as="points" />
          </mxGeometry>
        </mxCell>
        <mxCell id="xxLfgqL-7jw-6b7ukiaj-17" value="" style="curved=1;startArrow=none;endArrow=block;exitX=0.5;exitY=1;entryX=0;entryY=0.05;rounded=0;" edge="1" parent="1" source="xxLfgqL-7jw-6b7ukiaj-8" target="xxLfgqL-7jw-6b7ukiaj-9">
          <mxGeometry relative="1" as="geometry">
            <Array as="points">
              <mxPoint x="982" y="725" />
            </Array>
          </mxGeometry>
        </mxCell>
        <mxCell id="xxLfgqL-7jw-6b7ukiaj-18" value="" style="curved=1;startArrow=none;endArrow=block;exitX=0.49;exitY=1;entryX=1.01;entryY=0.05;rounded=0;" edge="1" parent="1" source="xxLfgqL-7jw-6b7ukiaj-6" target="xxLfgqL-7jw-6b7ukiaj-9">
          <mxGeometry relative="1" as="geometry">
            <Array as="points">
              <mxPoint x="1161" y="725" />
            </Array>
          </mxGeometry>
        </mxCell>
        <mxCell id="eohwxO8DQ9ZuVtTtyfGW-1" value="Pelanggan" style="swimlane;fontStyle=1;align=center;verticalAlign=top;childLayout=stackLayout;horizontal=1;startSize=26.857142857142858;horizontalStack=0;resizeParent=1;resizeParentMax=0;resizeLast=0;collapsible=0;marginBottom=0;" vertex="1" parent="1">
          <mxGeometry x="1564" y="30" width="197" height="196.85714285714286" as="geometry" />
        </mxCell>
        <mxCell id="eohwxO8DQ9ZuVtTtyfGW-2" value="+int id" style="text;strokeColor=none;fillColor=none;align=left;verticalAlign=top;spacingLeft=4;spacingRight=4;overflow=hidden;rotatable=0;points=[[0,0.5],[1,0.5]];portConstraint=eastwest;" vertex="1" parent="eohwxO8DQ9ZuVtTtyfGW-1">
          <mxGeometry y="26.857142857142858" width="197" height="27" as="geometry" />
        </mxCell>
        <mxCell id="eohwxO8DQ9ZuVtTtyfGW-3" value="+String nama" style="text;strokeColor=none;fillColor=none;align=left;verticalAlign=top;spacingLeft=4;spacingRight=4;overflow=hidden;rotatable=0;points=[[0,0.5],[1,0.5]];portConstraint=eastwest;" vertex="1" parent="eohwxO8DQ9ZuVtTtyfGW-1">
          <mxGeometry y="53.85714285714286" width="197" height="27" as="geometry" />
        </mxCell>
        <mxCell id="eohwxO8DQ9ZuVtTtyfGW-4" value="+String alamat" style="text;strokeColor=none;fillColor=none;align=left;verticalAlign=top;spacingLeft=4;spacingRight=4;overflow=hidden;rotatable=0;points=[[0,0.5],[1,0.5]];portConstraint=eastwest;" vertex="1" parent="eohwxO8DQ9ZuVtTtyfGW-1">
          <mxGeometry y="80.85714285714286" width="197" height="27" as="geometry" />
        </mxCell>
        <mxCell id="eohwxO8DQ9ZuVtTtyfGW-5" value="+String email" style="text;strokeColor=none;fillColor=none;align=left;verticalAlign=top;spacingLeft=4;spacingRight=4;overflow=hidden;rotatable=0;points=[[0,0.5],[1,0.5]];portConstraint=eastwest;" vertex="1" parent="eohwxO8DQ9ZuVtTtyfGW-1">
          <mxGeometry y="107.85714285714286" width="197" height="27" as="geometry" />
        </mxCell>
        <mxCell id="eohwxO8DQ9ZuVtTtyfGW-6" style="line;strokeWidth=1;fillColor=none;align=left;verticalAlign=middle;spacingTop=-1;spacingLeft=3;spacingRight=3;rotatable=0;labelPosition=right;points=[];portConstraint=eastwest;strokeColor=inherit;" vertex="1" parent="eohwxO8DQ9ZuVtTtyfGW-1">
          <mxGeometry y="134.85714285714286" width="197" height="8" as="geometry" />
        </mxCell>
        <mxCell id="eohwxO8DQ9ZuVtTtyfGW-7" value="+inisiasiPembayaran()" style="text;strokeColor=none;fillColor=none;align=left;verticalAlign=top;spacingLeft=4;spacingRight=4;overflow=hidden;rotatable=0;points=[[0,0.5],[1,0.5]];portConstraint=eastwest;" vertex="1" parent="eohwxO8DQ9ZuVtTtyfGW-1">
          <mxGeometry y="142.85714285714286" width="197" height="27" as="geometry" />
        </mxCell>
        <mxCell id="eohwxO8DQ9ZuVtTtyfGW-8" value="+konfirmasiPembayaran()" style="text;strokeColor=none;fillColor=none;align=left;verticalAlign=top;spacingLeft=4;spacingRight=4;overflow=hidden;rotatable=0;points=[[0,0.5],[1,0.5]];portConstraint=eastwest;" vertex="1" parent="eohwxO8DQ9ZuVtTtyfGW-1">
          <mxGeometry y="169.85714285714286" width="197" height="27" as="geometry" />
        </mxCell>
        <mxCell id="eohwxO8DQ9ZuVtTtyfGW-9" value="Pembayaran" style="swimlane;fontStyle=1;align=center;verticalAlign=top;childLayout=stackLayout;horizontal=1;startSize=26.857142857142858;horizontalStack=0;resizeParent=1;resizeParentMax=0;resizeLast=0;collapsible=0;marginBottom=0;" vertex="1" parent="1">
          <mxGeometry x="1568" y="295" width="188" height="196.85714285714286" as="geometry" />
        </mxCell>
        <mxCell id="eohwxO8DQ9ZuVtTtyfGW-10" value="+int id" style="text;strokeColor=none;fillColor=none;align=left;verticalAlign=top;spacingLeft=4;spacingRight=4;overflow=hidden;rotatable=0;points=[[0,0.5],[1,0.5]];portConstraint=eastwest;" vertex="1" parent="eohwxO8DQ9ZuVtTtyfGW-9">
          <mxGeometry y="26.857142857142858" width="188" height="27" as="geometry" />
        </mxCell>
        <mxCell id="eohwxO8DQ9ZuVtTtyfGW-11" value="+float jumlah" style="text;strokeColor=none;fillColor=none;align=left;verticalAlign=top;spacingLeft=4;spacingRight=4;overflow=hidden;rotatable=0;points=[[0,0.5],[1,0.5]];portConstraint=eastwest;" vertex="1" parent="eohwxO8DQ9ZuVtTtyfGW-9">
          <mxGeometry y="53.85714285714286" width="188" height="27" as="geometry" />
        </mxCell>
        <mxCell id="eohwxO8DQ9ZuVtTtyfGW-12" value="+Date tanggal" style="text;strokeColor=none;fillColor=none;align=left;verticalAlign=top;spacingLeft=4;spacingRight=4;overflow=hidden;rotatable=0;points=[[0,0.5],[1,0.5]];portConstraint=eastwest;" vertex="1" parent="eohwxO8DQ9ZuVtTtyfGW-9">
          <mxGeometry y="80.85714285714286" width="188" height="27" as="geometry" />
        </mxCell>
        <mxCell id="eohwxO8DQ9ZuVtTtyfGW-13" value="+String status" style="text;strokeColor=none;fillColor=none;align=left;verticalAlign=top;spacingLeft=4;spacingRight=4;overflow=hidden;rotatable=0;points=[[0,0.5],[1,0.5]];portConstraint=eastwest;" vertex="1" parent="eohwxO8DQ9ZuVtTtyfGW-9">
          <mxGeometry y="107.85714285714286" width="188" height="27" as="geometry" />
        </mxCell>
        <mxCell id="eohwxO8DQ9ZuVtTtyfGW-14" style="line;strokeWidth=1;fillColor=none;align=left;verticalAlign=middle;spacingTop=-1;spacingLeft=3;spacingRight=3;rotatable=0;labelPosition=right;points=[];portConstraint=eastwest;strokeColor=inherit;" vertex="1" parent="eohwxO8DQ9ZuVtTtyfGW-9">
          <mxGeometry y="134.85714285714286" width="188" height="8" as="geometry" />
        </mxCell>
        <mxCell id="eohwxO8DQ9ZuVtTtyfGW-15" value="+prosesPembayaran()" style="text;strokeColor=none;fillColor=none;align=left;verticalAlign=top;spacingLeft=4;spacingRight=4;overflow=hidden;rotatable=0;points=[[0,0.5],[1,0.5]];portConstraint=eastwest;" vertex="1" parent="eohwxO8DQ9ZuVtTtyfGW-9">
          <mxGeometry y="142.85714285714286" width="188" height="27" as="geometry" />
        </mxCell>
        <mxCell id="eohwxO8DQ9ZuVtTtyfGW-16" value="+verifikasiPembayaran()" style="text;strokeColor=none;fillColor=none;align=left;verticalAlign=top;spacingLeft=4;spacingRight=4;overflow=hidden;rotatable=0;points=[[0,0.5],[1,0.5]];portConstraint=eastwest;" vertex="1" parent="eohwxO8DQ9ZuVtTtyfGW-9">
          <mxGeometry y="169.85714285714286" width="188" height="27" as="geometry" />
        </mxCell>
        <mxCell id="eohwxO8DQ9ZuVtTtyfGW-17" value="Bank" style="swimlane;fontStyle=1;align=center;verticalAlign=top;childLayout=stackLayout;horizontal=1;startSize=28.4;horizontalStack=0;resizeParent=1;resizeParentMax=0;resizeLast=0;collapsible=0;marginBottom=0;" vertex="1" parent="1">
          <mxGeometry x="1480" y="560" width="146" height="148.4" as="geometry" />
        </mxCell>
        <mxCell id="eohwxO8DQ9ZuVtTtyfGW-18" value="+int id" style="text;strokeColor=none;fillColor=none;align=left;verticalAlign=top;spacingLeft=4;spacingRight=4;overflow=hidden;rotatable=0;points=[[0,0.5],[1,0.5]];portConstraint=eastwest;" vertex="1" parent="eohwxO8DQ9ZuVtTtyfGW-17">
          <mxGeometry y="28.4" width="146" height="28" as="geometry" />
        </mxCell>
        <mxCell id="eohwxO8DQ9ZuVtTtyfGW-19" value="+String nama" style="text;strokeColor=none;fillColor=none;align=left;verticalAlign=top;spacingLeft=4;spacingRight=4;overflow=hidden;rotatable=0;points=[[0,0.5],[1,0.5]];portConstraint=eastwest;" vertex="1" parent="eohwxO8DQ9ZuVtTtyfGW-17">
          <mxGeometry y="56.4" width="146" height="28" as="geometry" />
        </mxCell>
        <mxCell id="eohwxO8DQ9ZuVtTtyfGW-20" value="+String rekening" style="text;strokeColor=none;fillColor=none;align=left;verticalAlign=top;spacingLeft=4;spacingRight=4;overflow=hidden;rotatable=0;points=[[0,0.5],[1,0.5]];portConstraint=eastwest;" vertex="1" parent="eohwxO8DQ9ZuVtTtyfGW-17">
          <mxGeometry y="84.4" width="146" height="28" as="geometry" />
        </mxCell>
        <mxCell id="eohwxO8DQ9ZuVtTtyfGW-21" style="line;strokeWidth=1;fillColor=none;align=left;verticalAlign=middle;spacingTop=-1;spacingLeft=3;spacingRight=3;rotatable=0;labelPosition=right;points=[];portConstraint=eastwest;strokeColor=inherit;" vertex="1" parent="eohwxO8DQ9ZuVtTtyfGW-17">
          <mxGeometry y="112.4" width="146" height="8" as="geometry" />
        </mxCell>
        <mxCell id="eohwxO8DQ9ZuVtTtyfGW-22" value="+prosesTransaksi()" style="text;strokeColor=none;fillColor=none;align=left;verticalAlign=top;spacingLeft=4;spacingRight=4;overflow=hidden;rotatable=0;points=[[0,0.5],[1,0.5]];portConstraint=eastwest;" vertex="1" parent="eohwxO8DQ9ZuVtTtyfGW-17">
          <mxGeometry y="120.4" width="146" height="28" as="geometry" />
        </mxCell>
        <mxCell id="eohwxO8DQ9ZuVtTtyfGW-23" value="SistemAkuntansi" style="swimlane;fontStyle=1;align=center;verticalAlign=top;childLayout=stackLayout;horizontal=1;startSize=28.4;horizontalStack=0;resizeParent=1;resizeParentMax=0;resizeLast=0;collapsible=0;marginBottom=0;" vertex="1" parent="1">
          <mxGeometry x="1676" y="560" width="193" height="148.4" as="geometry" />
        </mxCell>
        <mxCell id="eohwxO8DQ9ZuVtTtyfGW-24" value="+int id" style="text;strokeColor=none;fillColor=none;align=left;verticalAlign=top;spacingLeft=4;spacingRight=4;overflow=hidden;rotatable=0;points=[[0,0.5],[1,0.5]];portConstraint=eastwest;" vertex="1" parent="eohwxO8DQ9ZuVtTtyfGW-23">
          <mxGeometry y="28.4" width="193" height="28" as="geometry" />
        </mxCell>
        <mxCell id="eohwxO8DQ9ZuVtTtyfGW-25" value="+String laporanKeuangan" style="text;strokeColor=none;fillColor=none;align=left;verticalAlign=top;spacingLeft=4;spacingRight=4;overflow=hidden;rotatable=0;points=[[0,0.5],[1,0.5]];portConstraint=eastwest;" vertex="1" parent="eohwxO8DQ9ZuVtTtyfGW-23">
          <mxGeometry y="56.4" width="193" height="28" as="geometry" />
        </mxCell>
        <mxCell id="eohwxO8DQ9ZuVtTtyfGW-26" style="line;strokeWidth=1;fillColor=none;align=left;verticalAlign=middle;spacingTop=-1;spacingLeft=3;spacingRight=3;rotatable=0;labelPosition=right;points=[];portConstraint=eastwest;strokeColor=inherit;" vertex="1" parent="eohwxO8DQ9ZuVtTtyfGW-23">
          <mxGeometry y="84.4" width="193" height="8" as="geometry" />
        </mxCell>
        <mxCell id="eohwxO8DQ9ZuVtTtyfGW-27" value="+updateCatatanUtang()" style="text;strokeColor=none;fillColor=none;align=left;verticalAlign=top;spacingLeft=4;spacingRight=4;overflow=hidden;rotatable=0;points=[[0,0.5],[1,0.5]];portConstraint=eastwest;" vertex="1" parent="eohwxO8DQ9ZuVtTtyfGW-23">
          <mxGeometry y="92.4" width="193" height="28" as="geometry" />
        </mxCell>
        <mxCell id="eohwxO8DQ9ZuVtTtyfGW-28" value="+generateLaporan()" style="text;strokeColor=none;fillColor=none;align=left;verticalAlign=top;spacingLeft=4;spacingRight=4;overflow=hidden;rotatable=0;points=[[0,0.5],[1,0.5]];portConstraint=eastwest;" vertex="1" parent="eohwxO8DQ9ZuVtTtyfGW-23">
          <mxGeometry y="120.4" width="193" height="28" as="geometry" />
        </mxCell>
        <mxCell id="eohwxO8DQ9ZuVtTtyfGW-29" value="melakukan" style="curved=1;startArrow=none;endArrow=open;endSize=12;exitX=0.5;exitY=1;entryX=0.5;entryY=0;rounded=0;" edge="1" parent="1" source="eohwxO8DQ9ZuVtTtyfGW-1" target="eohwxO8DQ9ZuVtTtyfGW-9">
          <mxGeometry relative="1" as="geometry">
            <Array as="points" />
          </mxGeometry>
        </mxCell>
        <mxCell id="eohwxO8DQ9ZuVtTtyfGW-30" value="melakukan transaksi" style="curved=1;startArrow=none;endArrow=open;endSize=12;exitX=0.07;exitY=1;entryX=0.5;entryY=0;rounded=0;" edge="1" parent="1" source="eohwxO8DQ9ZuVtTtyfGW-9" target="eohwxO8DQ9ZuVtTtyfGW-17">
          <mxGeometry relative="1" as="geometry">
            <Array as="points">
              <mxPoint x="1553" y="526" />
            </Array>
          </mxGeometry>
        </mxCell>
        <mxCell id="eohwxO8DQ9ZuVtTtyfGW-31" value="memperbarui catatan" style="curved=1;startArrow=none;endArrow=open;endSize=12;exitX=0.93;exitY=1;entryX=0.5;entryY=0;rounded=0;" edge="1" parent="1" source="eohwxO8DQ9ZuVtTtyfGW-9" target="eohwxO8DQ9ZuVtTtyfGW-23">
          <mxGeometry relative="1" as="geometry">
            <Array as="points">
              <mxPoint x="1772" y="526" />
            </Array>
          </mxGeometry>
        </mxCell>
        <mxCell id="HSXSyo_67aur-bhacaTq-16" value="Pelanggan" style="shape=umlLifeline;perimeter=lifelinePerimeter;whiteSpace=wrap;container=1;dropTarget=0;collapsible=0;recursiveResize=0;outlineConnect=0;portConstraint=eastwest;newEdgeStyle={&quot;edgeStyle&quot;:&quot;elbowEdgeStyle&quot;,&quot;elbow&quot;:&quot;vertical&quot;,&quot;curved&quot;:0,&quot;rounded&quot;:0};participant=umlActor;verticalAlign=bottom;labelPosition=center;verticalLabelPosition=top;align=center;size=65;" vertex="1" parent="1">
          <mxGeometry x="143" y="1040" width="35" height="554" as="geometry" />
        </mxCell>
        <mxCell id="HSXSyo_67aur-bhacaTq-17" value="Sistem Pembayaran" style="shape=umlLifeline;perimeter=lifelinePerimeter;whiteSpace=wrap;container=1;dropTarget=0;collapsible=0;recursiveResize=0;outlineConnect=0;portConstraint=eastwest;newEdgeStyle={&quot;edgeStyle&quot;:&quot;elbowEdgeStyle&quot;,&quot;elbow&quot;:&quot;vertical&quot;,&quot;curved&quot;:0,&quot;rounded&quot;:0};size=65;" vertex="1" parent="1">
          <mxGeometry x="434" y="1040" width="158" height="554" as="geometry" />
        </mxCell>
        <mxCell id="HSXSyo_67aur-bhacaTq-18" value="Bank" style="shape=umlLifeline;perimeter=lifelinePerimeter;whiteSpace=wrap;container=1;dropTarget=0;collapsible=0;recursiveResize=0;outlineConnect=0;portConstraint=eastwest;newEdgeStyle={&quot;edgeStyle&quot;:&quot;elbowEdgeStyle&quot;,&quot;elbow&quot;:&quot;vertical&quot;,&quot;curved&quot;:0,&quot;rounded&quot;:0};size=65;" vertex="1" parent="1">
          <mxGeometry x="733" y="1040" width="150" height="554" as="geometry" />
        </mxCell>
        <mxCell id="HSXSyo_67aur-bhacaTq-19" value="Sistem Akuntansi" style="shape=umlLifeline;perimeter=lifelinePerimeter;whiteSpace=wrap;container=1;dropTarget=0;collapsible=0;recursiveResize=0;outlineConnect=0;portConstraint=eastwest;newEdgeStyle={&quot;edgeStyle&quot;:&quot;elbowEdgeStyle&quot;,&quot;elbow&quot;:&quot;vertical&quot;,&quot;curved&quot;:0,&quot;rounded&quot;:0};size=65;" vertex="1" parent="1">
          <mxGeometry x="933" y="1040" width="150" height="554" as="geometry" />
        </mxCell>
        <mxCell id="HSXSyo_67aur-bhacaTq-20" value="Inisiasi Pembayaran Utang" style="verticalAlign=bottom;edgeStyle=elbowEdgeStyle;elbow=vertical;curved=0;rounded=0;endArrow=block;" edge="1" parent="1" source="HSXSyo_67aur-bhacaTq-16" target="HSXSyo_67aur-bhacaTq-17">
          <mxGeometry relative="1" as="geometry">
            <Array as="points">
              <mxPoint x="374" y="1147" />
            </Array>
          </mxGeometry>
        </mxCell>
        <mxCell id="HSXSyo_67aur-bhacaTq-21" value="Verifikasi Detail Utang" style="curved=1;endArrow=block;rounded=0;" edge="1" parent="1" source="HSXSyo_67aur-bhacaTq-17" target="HSXSyo_67aur-bhacaTq-17">
          <mxGeometry relative="1" as="geometry">
            <Array as="points">
              <mxPoint x="564" y="1199" />
              <mxPoint x="564" y="1229" />
            </Array>
          </mxGeometry>
        </mxCell>
        <mxCell id="HSXSyo_67aur-bhacaTq-22" value="Permintaan Pembayaran" style="verticalAlign=bottom;edgeStyle=elbowEdgeStyle;elbow=vertical;curved=0;rounded=0;endArrow=block;" edge="1" parent="1" source="HSXSyo_67aur-bhacaTq-17" target="HSXSyo_67aur-bhacaTq-18">
          <mxGeometry relative="1" as="geometry">
            <Array as="points">
              <mxPoint x="669" y="1281" />
            </Array>
          </mxGeometry>
        </mxCell>
        <mxCell id="HSXSyo_67aur-bhacaTq-23" value="Konfirmasi Pembayaran Berhasil" style="verticalAlign=bottom;edgeStyle=elbowEdgeStyle;elbow=vertical;curved=0;rounded=0;dashed=1;dashPattern=2 3;endArrow=block;" edge="1" parent="1" source="HSXSyo_67aur-bhacaTq-18" target="HSXSyo_67aur-bhacaTq-17">
          <mxGeometry relative="1" as="geometry">
            <Array as="points">
              <mxPoint x="672" y="1333" />
            </Array>
          </mxGeometry>
        </mxCell>
        <mxCell id="HSXSyo_67aur-bhacaTq-24" value="Konfirmasi Pembayaran Berhasil" style="verticalAlign=bottom;edgeStyle=elbowEdgeStyle;elbow=vertical;curved=0;rounded=0;endArrow=block;" edge="1" parent="1" source="HSXSyo_67aur-bhacaTq-17" target="HSXSyo_67aur-bhacaTq-16">
          <mxGeometry relative="1" as="geometry">
            <Array as="points">
              <mxPoint x="377" y="1385" />
            </Array>
          </mxGeometry>
        </mxCell>
        <mxCell id="HSXSyo_67aur-bhacaTq-25" value="Update Catatan Utang" style="verticalAlign=bottom;edgeStyle=elbowEdgeStyle;elbow=vertical;curved=0;rounded=0;endArrow=block;" edge="1" parent="1" source="HSXSyo_67aur-bhacaTq-17" target="HSXSyo_67aur-bhacaTq-19">
          <mxGeometry relative="1" as="geometry">
            <Array as="points">
              <mxPoint x="769" y="1437" />
            </Array>
          </mxGeometry>
        </mxCell>
        <mxCell id="HSXSyo_67aur-bhacaTq-26" value="Konfirmasi Utang Diperbarui" style="verticalAlign=bottom;edgeStyle=elbowEdgeStyle;elbow=vertical;curved=0;rounded=0;dashed=1;dashPattern=2 3;endArrow=block;" edge="1" parent="1" source="HSXSyo_67aur-bhacaTq-19" target="HSXSyo_67aur-bhacaTq-17">
          <mxGeometry relative="1" as="geometry">
            <Array as="points">
              <mxPoint x="772" y="1489" />
            </Array>
          </mxGeometry>
        </mxCell>
        <mxCell id="HSXSyo_67aur-bhacaTq-27" value="Pelanggan" style="shape=umlActor;verticalLabelPosition=bottom;verticalAlign=top;html=1;outlineConnect=0;" vertex="1" parent="1">
          <mxGeometry x="146" y="1610" width="30" height="60" as="geometry" />
        </mxCell>
        <mxCell id="HSXSyo_67aur-bhacaTq-28" value="Sistem Pembayaran" style="shape=umlLifeline;perimeter=lifelinePerimeter;whiteSpace=wrap;container=1;dropTarget=0;collapsible=0;recursiveResize=0;outlineConnect=0;portConstraint=eastwest;newEdgeStyle={&quot;edgeStyle&quot;:&quot;elbowEdgeStyle&quot;,&quot;elbow&quot;:&quot;vertical&quot;,&quot;curved&quot;:0,&quot;rounded&quot;:0};size=65;" vertex="1" parent="1">
          <mxGeometry x="434" y="1594" width="158" height="66" as="geometry" />
        </mxCell>
        <mxCell id="HSXSyo_67aur-bhacaTq-29" value="Bank" style="shape=umlLifeline;perimeter=lifelinePerimeter;whiteSpace=wrap;container=1;dropTarget=0;collapsible=0;recursiveResize=0;outlineConnect=0;portConstraint=eastwest;newEdgeStyle={&quot;edgeStyle&quot;:&quot;elbowEdgeStyle&quot;,&quot;elbow&quot;:&quot;vertical&quot;,&quot;curved&quot;:0,&quot;rounded&quot;:0};size=65;" vertex="1" parent="1">
          <mxGeometry x="733" y="1590" width="150" height="70" as="geometry" />
        </mxCell>
        <mxCell id="HSXSyo_67aur-bhacaTq-30" value="Sistem Akuntansi" style="shape=umlLifeline;perimeter=lifelinePerimeter;whiteSpace=wrap;container=1;dropTarget=0;collapsible=0;recursiveResize=0;outlineConnect=0;portConstraint=eastwest;newEdgeStyle={&quot;edgeStyle&quot;:&quot;elbowEdgeStyle&quot;,&quot;elbow&quot;:&quot;vertical&quot;,&quot;curved&quot;:0,&quot;rounded&quot;:0};size=65;" vertex="1" parent="1">
          <mxGeometry x="933" y="1590" width="150" height="70" as="geometry" />
        </mxCell>
        <mxCell id="JHPYTM-LSOSxaT6AzqQv-1" value="" style="ellipse;fillColor=strokeColor;" vertex="1" parent="1">
          <mxGeometry x="1664" y="1040" width="14" height="14" as="geometry" />
        </mxCell>
        <mxCell id="JHPYTM-LSOSxaT6AzqQv-2" value="Idle" style="rounded=1;absoluteArcSize=1;arcSize=14;whiteSpace=wrap;strokeWidth=2;" vertex="1" parent="1">
          <mxGeometry x="1650" y="1104" width="42" height="34" as="geometry" />
        </mxCell>
        <mxCell id="JHPYTM-LSOSxaT6AzqQv-3" value="InisiasiPembayaran" style="rounded=1;absoluteArcSize=1;arcSize=14;whiteSpace=wrap;strokeWidth=2;" vertex="1" parent="1">
          <mxGeometry x="1537" y="1207" width="151" height="34" as="geometry" />
        </mxCell>
        <mxCell id="JHPYTM-LSOSxaT6AzqQv-4" value="VerifikasiDetailUtang" style="rounded=1;absoluteArcSize=1;arcSize=14;whiteSpace=wrap;strokeWidth=2;" vertex="1" parent="1">
          <mxGeometry x="1529" y="1310" width="166" height="34" as="geometry" />
        </mxCell>
        <mxCell id="JHPYTM-LSOSxaT6AzqQv-5" value="PembayaranValid" style="rounded=1;absoluteArcSize=1;arcSize=14;whiteSpace=wrap;strokeWidth=2;" vertex="1" parent="1">
          <mxGeometry x="1488" y="1413" width="137" height="34" as="geometry" />
        </mxCell>
        <mxCell id="JHPYTM-LSOSxaT6AzqQv-6" value="PembayaranGagal" style="rounded=1;absoluteArcSize=1;arcSize=14;whiteSpace=wrap;strokeWidth=2;" vertex="1" parent="1">
          <mxGeometry x="1695" y="1413" width="143" height="34" as="geometry" />
        </mxCell>
        <mxCell id="JHPYTM-LSOSxaT6AzqQv-7" value="PembayaranBerhasil" style="rounded=1;absoluteArcSize=1;arcSize=14;whiteSpace=wrap;strokeWidth=2;" vertex="1" parent="1">
          <mxGeometry x="1477" y="1516" width="159" height="34" as="geometry" />
        </mxCell>
        <mxCell id="JHPYTM-LSOSxaT6AzqQv-8" value="UpdateCatatanAkuntansi" style="rounded=1;absoluteArcSize=1;arcSize=14;whiteSpace=wrap;strokeWidth=2;" vertex="1" parent="1">
          <mxGeometry x="1460" y="1619" width="192" height="34" as="geometry" />
        </mxCell>
        <mxCell id="JHPYTM-LSOSxaT6AzqQv-9" value="Selesai" style="rounded=1;absoluteArcSize=1;arcSize=14;whiteSpace=wrap;strokeWidth=2;" vertex="1" parent="1">
          <mxGeometry x="1524" y="1722" width="64" height="34" as="geometry" />
        </mxCell>
        <mxCell id="JHPYTM-LSOSxaT6AzqQv-10" value="" style="curved=1;startArrow=none;;exitX=0.52;exitY=1;entryX=0.51;entryY=0;rounded=0;" edge="1" parent="1" source="JHPYTM-LSOSxaT6AzqQv-1" target="JHPYTM-LSOSxaT6AzqQv-2">
          <mxGeometry relative="1" as="geometry">
            <Array as="points" />
          </mxGeometry>
        </mxCell>
        <mxCell id="JHPYTM-LSOSxaT6AzqQv-11" value="inisiasi pembayaran" style="curved=1;startArrow=none;;exitX=0.04;exitY=1;entryX=0.5;entryY=0;rounded=0;" edge="1" parent="1" source="JHPYTM-LSOSxaT6AzqQv-2" target="JHPYTM-LSOSxaT6AzqQv-3">
          <mxGeometry relative="1" as="geometry">
            <Array as="points">
              <mxPoint x="1612" y="1173" />
            </Array>
          </mxGeometry>
        </mxCell>
        <mxCell id="JHPYTM-LSOSxaT6AzqQv-12" value="verifikasi detail" style="curved=1;startArrow=none;;exitX=0.5;exitY=1;entryX=0.5;entryY=0;rounded=0;" edge="1" parent="1" source="JHPYTM-LSOSxaT6AzqQv-3" target="JHPYTM-LSOSxaT6AzqQv-4">
          <mxGeometry relative="1" as="geometry">
            <Array as="points" />
          </mxGeometry>
        </mxCell>
        <mxCell id="JHPYTM-LSOSxaT6AzqQv-13" value="data valid" style="curved=1;startArrow=none;;exitX=0.39;exitY=1;entryX=0.5;entryY=0;rounded=0;" edge="1" parent="1" source="JHPYTM-LSOSxaT6AzqQv-4" target="JHPYTM-LSOSxaT6AzqQv-5">
          <mxGeometry relative="1" as="geometry">
            <Array as="points">
              <mxPoint x="1556" y="1379" />
            </Array>
          </mxGeometry>
        </mxCell>
        <mxCell id="JHPYTM-LSOSxaT6AzqQv-14" value="data tidak valid" style="curved=1;startArrow=none;;exitX=0.69;exitY=1;entryX=0.36;entryY=0;rounded=0;" edge="1" parent="1" source="JHPYTM-LSOSxaT6AzqQv-4" target="JHPYTM-LSOSxaT6AzqQv-6">
          <mxGeometry relative="1" as="geometry">
            <Array as="points">
              <mxPoint x="1707" y="1379" />
            </Array>
          </mxGeometry>
        </mxCell>
        <mxCell id="JHPYTM-LSOSxaT6AzqQv-15" value="proses pembayaran" style="curved=1;startArrow=none;;exitX=0.5;exitY=1;entryX=0.5;entryY=0;rounded=0;" edge="1" parent="1" source="JHPYTM-LSOSxaT6AzqQv-5" target="JHPYTM-LSOSxaT6AzqQv-7">
          <mxGeometry relative="1" as="geometry">
            <Array as="points" />
          </mxGeometry>
        </mxCell>
        <mxCell id="JHPYTM-LSOSxaT6AzqQv-16" value="konfirmasi" style="curved=1;startArrow=none;;exitX=0.5;exitY=1;entryX=0.5;entryY=0;rounded=0;" edge="1" parent="1" source="JHPYTM-LSOSxaT6AzqQv-7" target="JHPYTM-LSOSxaT6AzqQv-8">
          <mxGeometry relative="1" as="geometry">
            <Array as="points" />
          </mxGeometry>
        </mxCell>
        <mxCell id="JHPYTM-LSOSxaT6AzqQv-17" value="selesai" style="curved=1;startArrow=none;;exitX=0.5;exitY=1;entryX=0.5;entryY=0;rounded=0;" edge="1" parent="1" source="JHPYTM-LSOSxaT6AzqQv-8" target="JHPYTM-LSOSxaT6AzqQv-9">
          <mxGeometry relative="1" as="geometry">
            <Array as="points" />
          </mxGeometry>
        </mxCell>
        <mxCell id="JHPYTM-LSOSxaT6AzqQv-18" value="coba lagi" style="curved=1;startArrow=none;;exitX=0.59;exitY=0;entryX=1.01;entryY=0.74;rounded=0;" edge="1" parent="1" source="JHPYTM-LSOSxaT6AzqQv-6" target="JHPYTM-LSOSxaT6AzqQv-2">
          <mxGeometry relative="1" as="geometry">
            <Array as="points">
              <mxPoint x="1804" y="1379" />
              <mxPoint x="1804" y="1173" />
            </Array>
          </mxGeometry>
        </mxCell>
        <mxCell id="JHPYTM-LSOSxaT6AzqQv-19" value="USE CASE DIAGRAM" style="text;html=1;align=center;verticalAlign=middle;whiteSpace=wrap;rounded=0;" vertex="1" parent="1">
          <mxGeometry x="330" y="720" width="150" height="30" as="geometry" />
        </mxCell>
        <mxCell id="JHPYTM-LSOSxaT6AzqQv-20" value="ACTIVITY DIAGRAM" style="text;html=1;align=center;verticalAlign=middle;whiteSpace=wrap;rounded=0;" vertex="1" parent="1">
          <mxGeometry x="995" y="830" width="150" height="30" as="geometry" />
        </mxCell>
        <mxCell id="JHPYTM-LSOSxaT6AzqQv-21" value="CLASS DIAGRAM" style="text;html=1;align=center;verticalAlign=middle;whiteSpace=wrap;rounded=0;" vertex="1" parent="1">
          <mxGeometry x="1611" y="784" width="150" height="30" as="geometry" />
        </mxCell>
        <mxCell id="JHPYTM-LSOSxaT6AzqQv-23" value="SEQUENCE DIAGRAM" style="text;html=1;align=center;verticalAlign=middle;whiteSpace=wrap;rounded=0;" vertex="1" parent="1">
          <mxGeometry x="561" y="1760" width="150" height="30" as="geometry" />
        </mxCell>
        <mxCell id="JHPYTM-LSOSxaT6AzqQv-24" value="STATE DIAGRAM" style="text;html=1;align=center;verticalAlign=middle;whiteSpace=wrap;rounded=0;" vertex="1" parent="1">
          <mxGeometry x="1568" y="1850" width="150" height="30" as="geometry" />
        </mxCell>
      </root>
    </mxGraphModel>
  </diagram>
  <diagram id="aejdMCd1pjGfnR2lA-Ku" name="State Diagram">
    <mxGraphModel dx="1674" dy="772" grid="1" gridSize="10" guides="1" tooltips="1" connect="1" arrows="1" fold="1" page="1" pageScale="1" pageWidth="850" pageHeight="1100" math="0" shadow="0">
      <root>
        <mxCell id="0" />
        <mxCell id="1" parent="0" />
      </root>
    </mxGraphModel>
  </diagram>
</mxfile>
